<svg xmlns="http://www.w3.org/2000/svg" viewBox="0 0 503.74 68.92"><defs><style>.cls-1{fill:#1d1d1b;}</style></defs><g id="Layer_2" data-name="Layer 2"><g id="Vrstva_1" data-name="Vrstva 1"><path class="cls-1" d="M113.64,51.48l-.42-3.81c-1.51,2.26-4.81,4.52-9.85,4.52-9,0-16.68-6.6-16.68-17.39s8-17.43,17.1-17.43c8.77,0,13.62,5.13,15.27,10.27l-6.22,2.21a8.93,8.93,0,0,0-9-6.4c-5,0-10.51,3.44-10.51,11.35,0,7.54,5,11.45,10.56,11.45,6.17,0,8.57-4.15,9-6.5H102.24V34.09h16.68V51.48Z"/><path class="cls-1" d="M130.51,38.15l5.7-.85c1.32-.19,1.75-.85,1.75-1.65,0-1.65-1.28-3-3.91-3a4.12,4.12,0,0,0-4.43,3.77l-5.56-1.17c.37-3.63,3.72-7.64,9.94-7.64,7.35,0,10.08,4.15,10.08,8.81V47.81a24.6,24.6,0,0,0,.29,3.67h-5.75a14.83,14.83,0,0,1-.24-2.78,7.74,7.74,0,0,1-6.83,3.44c-5,0-8-3.34-8-7C123.59,41,126.65,38.71,130.51,38.15Zm7.45,4v-1l-5.23.8c-1.61.23-2.88,1.13-2.88,2.92a2.72,2.72,0,0,0,3,2.69C135.51,47.48,138,46.2,138,42.1Z"/><path class="cls-1" d="M150.4,51.48V17.37h6.27V51.48Z"/><path class="cls-1" d="M184.14,44.84c-1.18,4-4.86,7.35-10.56,7.35-6.36,0-12-4.57-12-12.39,0-7.4,5.47-12.21,11.41-12.21,7.16,0,11.45,4.57,11.45,12,0,.89-.1,1.84-.1,1.93H167.79a5.65,5.65,0,0,0,5.84,5.28,5.13,5.13,0,0,0,5.28-3.54Zm-5.84-7.59c-.1-2.31-1.61-4.57-5.19-4.57a5,5,0,0,0-5.18,4.57Z"/><path class="cls-1" d="M203.55,34.52a9.49,9.49,0,0,0-1.88-.19c-3.2,0-6,1.55-6,6.55v10.6h-6.26V28.3h6.08v3.44c1.41-3.06,4.61-3.63,6.59-3.63.52,0,1,.05,1.46.09Z"/><path class="cls-1" d="M211.09,16.8a3.87,3.87,0,1,1-3.86,3.91A3.87,3.87,0,0,1,211.09,16.8ZM208,51.48V28.3h6.27V51.48Z"/><path class="cls-1" d="M241.58,44.84c-1.18,4-4.85,7.35-10.55,7.35-6.36,0-12-4.57-12-12.39,0-7.4,5.46-12.21,11.4-12.21,7.16,0,11.45,4.57,11.45,12,0,.89-.09,1.84-.09,1.93H225.23a5.65,5.65,0,0,0,5.84,5.28,5.11,5.11,0,0,0,5.28-3.54Zm-5.84-7.59c-.09-2.31-1.6-4.57-5.18-4.57a5,5,0,0,0-5.19,4.57Z"/><path class="cls-1" d="M268.92,38.62h-3.4V51.48H259V18.07H272c6.5,0,10.64,4.48,10.64,10.28a9.49,9.49,0,0,1-7.11,9.47l7.16,13.66h-7.25ZM270.8,33c3.3,0,5.23-1.88,5.23-4.62s-1.93-4.66-5.23-4.66h-5.28V33Z"/><path class="cls-1" d="M302.09,49c-1.27,2.17-4,3.11-6.41,3.11-5.6,0-8.81-4.09-8.81-9.14V28.3h6.27V41.68c0,2.59,1.32,4.67,4.24,4.67s4.38-1.89,4.38-4.57V28.3H308v19a39.5,39.5,0,0,0,.23,4.19h-6A16.31,16.31,0,0,1,302.09,49Z"/><path class="cls-1" d="M336.63,47.29c0,1.55.1,3.25.19,4.19h-6a15.26,15.26,0,0,1-.24-2.68,7.28,7.28,0,0,1-6.5,3.25c-6.6,0-11.31-5.19-11.31-12.21,0-6.78,4.57-12.11,11.12-12.11,4,0,5.89,1.65,6.55,2.88V17.37h6.17Zm-11.78-.85c3.21,0,5.7-2.45,5.7-6.64s-2.49-6.46-5.7-6.46-5.74,2.36-5.74,6.5S321.55,46.44,324.85,46.44Z"/><path class="cls-1" d="M366,39.89a12.16,12.16,0,1,1-24.31,0,12.16,12.16,0,1,1,24.31,0Zm-6.26,0c0-4.38-2.83-6.6-5.9-6.6s-5.89,2.22-5.89,6.6,2.83,6.6,5.89,6.6S359.73,44.27,359.73,39.89Z"/><path class="cls-1" d="M370.85,51.48V17.37h6.27V51.48Z"/><path class="cls-1" d="M391.3,33.67V51.48H385V33.67h-3.87V28.3H385V25.66c0-5.23,3.29-8.62,8.43-8.62a9,9,0,0,1,3.11.47v5.28a6.73,6.73,0,0,0-2-.24,3,3,0,0,0-3.25,3.2V28.3h15.5V51.48h-6.22V33.67Zm12.39-16.91a3.89,3.89,0,0,1,3.87,3.91,3.87,3.87,0,0,1-7.73,0A3.89,3.89,0,0,1,403.69,16.76Z"/><path class="cls-1" d="M419.81,51.48h-6.27V28.3h6.08v2.87a7.71,7.71,0,0,1,6.69-3.48c5.75,0,8.39,4.1,8.39,9.18V51.48h-6.27V38c0-2.59-1.27-4.62-4.28-4.62-2.74,0-4.34,2.12-4.34,4.81Z"/><path class="cls-1" d="M455.72,49c-1.27,2.17-4,3.11-6.41,3.11-5.61,0-8.81-4.09-8.81-9.14V28.3h6.27V41.68c0,2.59,1.32,4.67,4.24,4.67s4.38-1.89,4.38-4.57V28.3h6.27v19a39.5,39.5,0,0,0,.23,4.19h-6A15.12,15.12,0,0,1,455.72,49Z"/><path class="cls-1" d="M468.35,51.48V28.3h6v2.83c1.28-2.27,4.24-3.49,6.79-3.49,3.16,0,5.7,1.37,6.88,3.86a8.07,8.07,0,0,1,7.35-3.86c4.29,0,8.39,2.59,8.39,8.81v15h-6.08V37.72c0-2.49-1.23-4.38-4.1-4.38a4.25,4.25,0,0,0-4.29,4.57V51.48h-6.22V37.72c0-2.49-1.27-4.38-4.1-4.38a4.24,4.24,0,0,0-4.33,4.57V51.48Z"/><path class="cls-1" d="M34.46,0A34.46,34.46,0,1,0,68.92,34.46,34.5,34.5,0,0,0,34.46,0Zm0,65A30.58,30.58,0,1,1,65,34.46,30.58,30.58,0,0,1,34.46,65Z"/><path class="cls-1" d="M34.46,65,47.62,42H21.3Zm0-46.14L47.62,42,60.79,18.9Zm-26.32,0L21.3,42,34.46,18.9Z"/></g></g></svg>