<svg width="110" height="71" viewBox="0 0 110 71" fill="none" xmlns="http://www.w3.org/2000/svg">
<path d="M55.3046 66.5C26.6546 66.5 11.8546 62.6 1.30457 59.15C0.904574 59 0.604574 60.05 1.00457 60.25C11.1046 64.55 26.6546 70.25 55.3046 70.25C83.9546 70.25 99.6046 64.5 109.705 60.25C110.105 60.05 109.805 59 109.455 59.15C98.8546 62.6 84.0546 66.5 55.3046 66.5ZM91.0546 30C91.1546 24.6 91.8046 11.6 91.8046 10.15C91.8046 9.95 91.5046 9.7 91.0046 9.7C88.5006 10.1954 85.9569 10.4632 83.4046 10.5C83.1546 10.5 83.1046 10.85 83.1046 11.25C83.1046 11.65 83.1546 11.9 83.4046 11.9C86.4046 11.9 87.1546 12.35 87.1546 14.3C87.1546 17.25 87.1046 39.3 87.1046 44C87.1046 46 86.4046 46.2 83.6546 46.35C83.5546 46.35 83.4546 46.6 83.4546 46.9C83.4546 47.2 83.5546 47.35 83.6546 47.35C85.1046 47.35 87.4046 47.15 89.4546 47.15C91.0046 47.15 92.4546 47.35 94.4546 47.35C94.6046 47.35 94.6546 47.15 94.6546 46.95C94.6546 46.75 94.5546 46.35 94.4546 46.35C91.2046 46.35 91.1546 45.55 91.1546 44.1C91.1546 43 91.2046 38.45 91.2046 35.7C91.2046 29.2 94.3546 27.1 97.8546 27.1C98.4559 27.0767 99.0553 27.1813 99.6131 27.407C100.171 27.6327 100.675 27.9742 101.091 28.4091C101.506 28.844 101.825 29.3622 102.026 29.9295C102.227 30.4968 102.305 31.1003 102.255 31.7C102.255 34.6 102.055 40.4 102.055 43.55C102.055 45.2 101.055 46.35 98.6046 46.35C98.5046 46.35 98.4046 46.6 98.4046 46.85C98.4046 47.1 98.5046 47.35 98.6046 47.35C100.155 47.35 102.405 47.15 103.605 47.15C106.005 47.15 107.855 47.35 109.655 47.35C109.805 47.35 109.855 47.15 109.855 46.95C109.855 46.75 109.755 46.35 109.655 46.35C106.455 46.1 106.105 45.15 106.105 42.45C106.105 40.15 106.505 34.95 106.505 31.4C106.505 26.8 102.855 24.85 99.5046 24.85C96.1546 24.85 92.0046 26.7 91.0546 30ZM67.5546 37C75.0546 46.7 75.5546 47.3 76.9546 47.3C78.6546 47.3 80.1546 47.35 81.8546 47.35C81.9527 47.3399 82.0433 47.2931 82.1083 47.2189C82.1732 47.1446 82.2076 47.0486 82.2046 46.95C82.2046 46.65 82.2046 46.35 82.1046 46.35C81.7117 46.3611 81.3206 46.2931 80.9546 46.15C79.5046 45.55 75.8546 41.4 70.5546 34.7C71.5546 33.9 74.5546 31.05 75.9046 29.9C77.7046 28.3 78.9046 27.35 80.4046 27C80.6046 26.95 80.6546 26.65 80.6546 26.4C80.6546 26.15 80.6046 26 80.4046 26C79.7046 26 77.8046 26.15 75.9546 26.15C74.1046 26.15 72.9546 26.1 71.6046 26.1C71.4546 26.1 71.4046 26.4 71.4046 26.6C71.4046 26.8 71.4046 27.15 71.6046 27.15C73.2046 27.15 73.8546 27.5 73.8546 28.6C73.8546 29.7 71.1546 32.9 65.5546 37.05C65.5546 27.5 65.9546 11.45 65.9546 10.2C65.9546 10 65.6546 9.75 65.1546 9.75C62.7544 10.2619 60.3086 10.53 57.8546 10.55C57.6046 10.55 57.5546 10.9 57.5546 11.3C57.5546 11.7 57.6046 11.95 57.8546 11.95C60.8546 11.95 61.5046 12.4 61.5046 14.35C61.5046 17.8 61.5046 37.2 61.5046 43.6C61.5046 45.35 61.2046 46.05 58.5546 46.4C58.4046 46.4 58.3546 46.7 58.3546 46.9C58.3546 47.1 58.4046 47.4 58.5546 47.4C60.1546 47.4 61.2046 47.25 63.1546 47.25C64.4046 47.25 66.4046 47.4 68.1546 47.4C68.3046 47.4 68.3546 47.2 68.3546 47C68.3676 46.7817 68.2959 46.5668 68.1546 46.4C65.9546 46.1 65.5046 45.6 65.5046 44.6C65.5046 43.6 65.5046 41.6 65.5046 38.5C66.2131 38.0772 66.8825 37.592 67.5046 37.05L67.5546 37ZM51.8546 26.85C50.9177 25.9086 49.7253 25.2627 48.425 24.9922C47.1247 24.7216 45.7736 24.8384 44.539 25.328C43.3043 25.8176 42.2404 26.6585 41.4789 27.7466C40.7174 28.8348 40.2917 30.1224 40.2546 31.45C40.2546 39.3 51.5546 36.95 51.5546 42.9C51.5546 45.4 49.6046 46.7 46.9046 46.7C45.3517 46.6593 43.8713 46.0343 42.7591 44.9498C41.6469 43.8654 40.9846 42.4013 40.9046 40.85C40.8998 40.7968 40.8841 40.7451 40.8584 40.6982C40.8328 40.6512 40.7978 40.6101 40.7556 40.5773C40.7134 40.5444 40.6649 40.5206 40.6131 40.5074C40.5613 40.4941 40.5074 40.4916 40.4546 40.5C40.1046 40.5 39.9546 40.7 39.9546 40.9C39.9546 42.55 39.7046 45.6 39.7046 46.35C39.7146 46.4481 39.7615 46.5388 39.8357 46.6037C39.9099 46.6686 40.006 46.703 40.1046 46.7C40.1858 46.7063 40.2675 46.6963 40.3447 46.6705C40.422 46.6448 40.4934 46.6038 40.5546 46.55C40.7199 46.3472 40.949 46.2062 41.2046 46.15C41.44 46.1912 41.6528 46.3154 41.8046 46.5C42.4546 47.2 44.2046 48.15 47.0046 48.15C50.2546 48.15 54.7546 46.35 54.7546 41.15C54.7546 33.4 43.1046 34.55 43.1046 29.95C43.0818 29.4515 43.1632 28.9537 43.3436 28.4884C43.524 28.0232 43.7995 27.6006 44.1523 27.2478C44.5052 26.8949 44.9277 26.6195 45.393 26.4391C45.8583 26.2587 46.3561 26.1772 46.8546 26.2C49.5546 26.2 51.7046 27.95 52.2546 31.2C52.2789 31.3237 52.3491 31.4337 52.4511 31.5079C52.5531 31.5821 52.6793 31.615 52.8046 31.6C53.0546 31.6 53.3546 31.5 53.3546 31.25C53.3546 29.45 53.5546 26.55 53.5546 26.25C53.5546 25.95 52.8546 25.85 52.7546 26.15C52.5046 26.85 52.0046 27 51.8546 26.85ZM26.1046 0.9C26.4046 0.55 25.8546 0 25.4546 0C25.2713 0.0134344 25.0966 0.0833002 24.9546 0.2L19.1046 5.45L12.7546 0.2C12.6081 0.0981674 12.4329 0.0456296 12.2546 0.05C11.9046 0.05 11.3046 0.5 11.6546 0.9L17.6546 8.4C18.0066 8.62101 18.4139 8.73824 18.8296 8.73824C19.2453 8.73824 19.6525 8.62101 20.0046 8.4L26.1046 0.9ZM18.7046 10.75C16.2239 10.7212 13.7629 11.1919 11.4679 12.1341C9.17296 13.0762 7.09108 14.4706 5.34624 16.2341C3.60139 17.9976 2.22927 20.0942 1.31158 22.399C0.393889 24.7039 -0.0506027 27.1698 0.00457424 29.65C0.00457424 40.65 7.55457 48.25 18.1046 48.25C22.1608 48.3432 26.1223 47.0169 29.3046 44.5C29.7491 44.0838 30.305 43.8059 30.9046 43.7C31.04 43.6932 31.1755 43.7141 31.3026 43.7613C31.4298 43.8085 31.546 43.8811 31.6442 43.9746C31.7425 44.0682 31.8206 44.1807 31.874 44.3054C31.9273 44.4301 31.9547 44.5644 31.9546 44.7C31.9546 44.95 32.3046 45.1 32.7046 45.1C33.1046 45.1 33.4046 44.9 33.4046 44.7C33.3265 43.8022 33.2931 42.9011 33.3046 42C33.3046 39.75 33.6046 38 33.8046 35.25C33.8046 35 33.4046 34.9 33.0546 34.9C32.7046 34.9 32.3046 35 32.3046 35.25C32.0301 38.328 30.5865 41.1838 28.2707 43.23C25.9549 45.2761 22.943 46.3569 19.8546 46.25C11.7546 46.25 6.50457 40.25 6.50457 30.25C6.50457 18.25 11.6546 12.3 19.1046 12.3C26.8046 12.3 31.6546 16.45 32.5546 24.4C32.5546 24.65 32.9046 24.75 33.2546 24.75C33.6046 24.75 34.0046 24.65 34.0046 24.4C33.8546 22.55 33.7546 20.65 33.7546 18.8C33.7546 16.95 33.8546 15 34.0046 13.15C34.0046 12.9 33.6546 12.8 33.2546 12.8C32.8546 12.8 32.5546 12.9 32.5546 13.15C32.5145 13.5973 32.325 14.0182 32.0166 14.3447C31.7082 14.6712 31.2989 14.8844 30.8546 14.95C30.3046 14.95 29.8546 14.4 29.3046 13.95C27.7046 12.7 24.5046 10.75 18.7046 10.75" fill="#231F20"/>
</svg>
