<svg width="402" height="71" viewBox="0 0 402 71" fill="none" xmlns="http://www.w3.org/2000/svg">
<path d="M142.705 66.35C110.405 66.35 93.7046 62.2 81.7046 58.5C81.2546 58.35 80.9546 59.5 81.4046 59.7C92.8546 64.25 110.405 70.4 142.705 70.4C175.005 70.4 192.705 64.25 204.105 59.7C204.555 59.5 204.255 58.35 203.805 58.5C191.805 62.2 175.105 66.35 142.705 66.35V66.35ZM393.005 26.25C396.555 26.25 397.305 28.15 397.305 29.9C397.305 31.1 396.905 31.2 395.055 31.3C391.455 31.45 388.055 31.65 386.405 31.7C387.405 28.35 389.605 26.25 393.005 26.25V26.25ZM393.455 24.85C385.855 24.85 381.655 30.95 381.655 37.35C381.655 44.85 386.505 48.15 392.755 48.15C396.905 48.15 399.805 46.3 401.205 43.95C401.245 43.8732 401.262 43.7864 401.255 43.7C401.255 43.45 400.805 43.05 400.455 43.05C400.369 43.0407 400.282 43.0542 400.203 43.0894C400.124 43.1245 400.055 43.1799 400.005 43.25C398.805 45.1 396.955 46.25 393.955 46.25C389.255 46.25 385.855 42.25 385.855 35.45C385.852 34.492 385.953 33.5366 386.155 32.6C391.055 32.85 397.005 32.9 400.605 32.9C401.305 32.9 401.555 32.7 401.555 31.75C401.555 29.6 399.155 24.9 393.455 24.9V24.85ZM373.205 16.4C373.741 16.4099 374.267 16.2601 374.718 15.9695C375.169 15.6789 375.522 15.2608 375.734 14.7684C375.946 14.276 376.007 13.7316 375.909 13.2046C375.81 12.6776 375.557 12.1918 375.182 11.8092C374.806 11.4266 374.325 11.1644 373.8 11.0561C373.275 10.9478 372.729 10.9983 372.233 11.2011C371.737 11.4039 371.312 11.7499 371.013 12.1949C370.714 12.6399 370.555 13.1639 370.555 13.7C370.549 14.4091 370.825 15.0914 371.322 15.5974C371.819 16.1035 372.496 16.3921 373.205 16.4ZM369.755 27.2C370.655 27.2 370.905 27.55 370.905 28.65C370.905 32.05 370.905 37.5 370.905 43.9C370.905 45.55 370.255 46.15 367.455 46.35C367.355 46.35 367.255 46.6 367.255 46.8C367.255 47 367.355 47.35 367.455 47.35C368.905 47.35 370.855 47.2 372.805 47.2C375.155 47.2 376.905 47.35 378.205 47.35C378.355 47.35 378.405 47.15 378.405 46.95C378.405 46.75 378.305 46.35 378.205 46.35C374.955 46.15 374.805 45.45 374.805 43.95C374.805 38.45 375.155 27.05 375.155 25.55C375.155 25.15 374.805 24.85 374.155 24.85C372.146 25.6541 370.016 26.1106 367.855 26.2C367.605 26.25 367.505 26.45 367.505 26.75C367.505 27.05 367.605 27.2 367.855 27.2H369.755ZM341.905 28.65C341.905 32.05 341.955 37.65 341.955 44C341.955 45.55 341.705 46.15 338.505 46.4C338.405 46.4 338.305 46.65 338.305 46.95C338.305 47.25 338.405 47.4 338.505 47.4C340.005 47.4 342.005 47.25 344.105 47.25C345.605 47.25 347.405 47.35 349.305 47.35C349.455 47.35 349.505 47.15 349.505 46.95C349.505 46.75 349.405 46.35 349.305 46.35C346.655 46.35 346.005 45.65 346.005 44.2C346.005 43.1 346.055 38.2 346.055 35.8C346.055 28.45 350.055 27.1 352.605 27.1C353.2 27.0585 353.797 27.1452 354.355 27.3541C354.914 27.5631 355.422 27.8895 355.843 28.3113C356.265 28.7331 356.592 29.2404 356.8 29.7992C357.009 30.3579 357.096 30.9549 357.055 31.55C357.055 34.7 356.855 40.7 356.855 43.65C356.855 45.35 356.355 46.25 353.405 46.35C353.305 46.35 353.205 46.6 353.205 46.9C353.205 47.2 353.305 47.35 353.405 47.35C354.905 47.35 356.905 47.2 359.055 47.2C361.205 47.2 363.255 47.35 364.355 47.35C364.505 47.35 364.555 47.15 364.555 46.95C364.555 46.75 364.455 46.35 364.355 46.35C361.705 46.25 361.055 45.8 361.055 42.45C361.055 40.15 361.405 35.05 361.405 31.45C361.405 26.8 357.855 24.8 354.255 24.8C350.855 24.8 346.855 26.7 345.955 30C346.005 28.45 346.105 26.9 346.105 25.5C346.105 25.1 345.755 24.8 345.105 24.8C343.096 25.6041 340.966 26.0606 338.805 26.15C338.555 26.2 338.455 26.4 338.455 26.7C338.455 27 338.555 27.15 338.805 27.15H340.705C341.605 27.15 341.855 27.5 341.855 28.6L341.905 28.65ZM323.255 46.8C318.705 46.8 316.155 43.05 316.155 36.45C316.155 30.05 318.655 26.15 323.255 26.15C327.855 26.15 330.405 30.5 330.405 36.45C330.405 42.9 327.805 46.8 323.255 46.8ZM335.405 36.5C335.314 33.3577 334.002 30.3744 331.748 28.1837C329.493 25.993 326.473 24.7675 323.33 24.7675C320.186 24.7675 317.166 25.993 314.911 28.1837C312.657 30.3744 311.345 33.3577 311.255 36.5C311.345 39.6423 312.657 42.6256 314.911 44.8163C317.166 47.007 320.186 48.2325 323.33 48.2325C326.473 48.2325 329.493 47.007 331.748 44.8163C334.002 42.6256 335.314 39.6423 335.405 36.5ZM272.005 28.65C272.005 32.05 272.155 37.65 272.155 43.85C272.155 45.75 271.655 46.2 268.705 46.35C268.605 46.35 268.505 46.6 268.505 46.9C268.505 47.2 268.605 47.35 268.705 47.35C270.155 47.35 272.055 47.15 274.055 47.15C275.655 47.15 277.405 47.35 279.405 47.35C279.555 47.35 279.605 47.15 279.605 46.95C279.605 46.75 279.505 46.35 279.405 46.35C276.205 46.35 276.205 45.65 276.205 44.2V35.2C276.205 29.3 279.355 27.1 282.355 27.1C285.155 27.1 286.455 28.65 286.455 32.2C286.455 35 286.405 38.9 286.405 43.85C286.405 45.4 286.005 46.15 282.755 46.3C282.605 46.3 282.555 46.55 282.555 46.8C282.555 47.05 282.605 47.3 282.755 47.3C284.355 47.3 286.355 47.15 288.555 47.15C290.005 47.15 291.655 47.3 293.455 47.3C293.655 47.3 293.705 47.1 293.705 46.9C293.705 46.7 293.605 46.3 293.455 46.3C290.205 46.3 290.355 45.1 290.355 42.45C290.355 40.15 290.605 36.05 290.605 33.15C290.559 32.3539 290.678 31.5569 290.956 30.8094C291.234 30.0619 291.663 29.38 292.218 28.8069C292.772 28.2337 293.439 27.7816 294.177 27.4793C294.915 27.1769 295.707 27.0307 296.505 27.05C299.405 27.05 300.855 28.75 300.855 31.05C300.855 34.5 300.655 38.75 300.655 43.7C300.655 45.05 300.405 46.25 297.205 46.3C297.055 46.3 297.005 46.55 297.005 46.85C297.005 47.15 297.055 47.3 297.205 47.3C298.755 47.3 300.755 47.2 302.905 47.2C305.055 47.2 306.555 47.3 307.905 47.3C308.055 47.3 308.105 47.1 308.105 46.9C308.105 46.7 308.005 46.3 307.905 46.3C304.455 46.15 304.705 44.95 304.705 42.75C304.705 40 305.105 35 305.105 31.15C305.105 26.75 301.605 24.8 298.205 24.8C295.055 24.8 291.355 26.6 290.105 29.9C289.875 28.466 289.137 27.1623 288.027 26.2263C286.916 25.2902 285.507 24.7841 284.055 24.8C280.655 24.8 277.005 27.2 276.055 30.4C276.105 28.95 276.205 26.9 276.205 25.5C276.205 25.1 275.855 24.8 275.255 24.8C273.267 25.6213 271.153 26.0949 269.005 26.2C268.755 26.25 268.655 26.45 268.655 26.75C268.655 27.05 268.755 27.2 269.005 27.2H270.855C271.755 27.2 272.005 27.55 272.005 28.65ZM253.605 28.65C253.605 36.45 253.505 43.05 253.505 44.25C253.505 45.45 252.955 46.35 250.155 46.35C250.055 46.35 249.955 46.6 249.955 46.9C249.955 47.2 250.055 47.35 250.155 47.35C251.055 47.35 253.605 47.2 255.755 47.2C257.505 47.2 259.355 47.35 261.655 47.35C261.805 47.35 261.855 47.15 261.855 46.95C261.855 46.75 261.755 46.35 261.655 46.35C258.555 46.35 257.655 45.55 257.655 44.1C257.655 43 257.705 36.65 257.705 34.05C257.705 29.1 259.855 27.55 261.705 27.55C262.121 27.5194 262.538 27.6121 262.903 27.8166C263.267 28.0211 263.563 28.3283 263.755 28.7C263.866 28.98 264.06 29.2202 264.309 29.3895C264.559 29.5588 264.853 29.6495 265.155 29.65C265.426 29.6378 265.693 29.5702 265.938 29.4515C266.183 29.3327 266.401 29.1652 266.578 28.9593C266.756 28.7533 266.89 28.5132 266.972 28.2537C267.054 27.9942 267.082 27.7207 267.055 27.45C267.055 26.2 266.205 24.85 263.655 24.85C261.755 24.85 258.755 26.45 257.555 29.85C257.605 28.5 257.705 26.95 257.705 25.55C257.705 25.15 257.355 24.85 256.755 24.85C254.746 25.6541 252.616 26.1106 250.455 26.2C250.205 26.25 250.105 26.45 250.105 26.75C250.105 27.05 250.205 27.2 250.455 27.2H252.355C253.255 27.2 253.605 27.55 253.605 28.65V28.65ZM235.405 24.85C228.605 24.85 226.805 27.5 226.805 29.05C226.8 29.257 226.838 29.4627 226.918 29.6537C226.998 29.8447 227.118 30.0166 227.269 30.1582C227.42 30.2998 227.599 30.4079 227.795 30.4755C227.991 30.543 228.198 30.5684 228.405 30.55C228.826 30.5423 229.237 30.4101 229.584 30.1698C229.931 29.9296 230.199 29.5922 230.355 29.2C231.005 27.4 232.155 26.25 234.955 26.25C238.655 26.25 239.005 28.3 239.005 31.05V33.6C228.655 36.2 226.055 40 226.055 43.55C226.055 46.45 227.955 48.1 231.505 48.1C233.023 48.0544 234.506 47.6275 235.817 46.8586C237.128 46.0897 238.224 45.0035 239.005 43.7C239.105 46.7 240.005 48.1 243.005 48.1C243.975 48.1297 244.928 47.8435 245.722 47.2844C246.516 46.7253 247.106 45.9236 247.405 45C247.405 44.75 247.005 44.55 246.805 44.55C246.753 44.5485 246.702 44.5618 246.658 44.5884C246.613 44.6149 246.578 44.6537 246.555 44.7C246.355 45.0615 246.056 45.3577 245.692 45.5529C245.328 45.7481 244.916 45.8339 244.505 45.8C243.505 45.8 242.805 45.3 242.805 43.6C242.805 38.65 243.305 33.4 243.305 31.15C243.305 26.8 241.605 24.9 235.405 24.9V24.85ZM238.855 42.5C236.855 44.95 235.155 45.6 233.655 45.6C233.239 45.6248 232.823 45.5595 232.435 45.4086C232.047 45.2576 231.696 45.0246 231.406 44.7255C231.117 44.4263 230.895 44.0681 230.757 43.6754C230.618 43.2826 230.566 42.8646 230.605 42.45C230.605 39.5 232.255 36.7 238.905 34.75C238.855 37.15 238.855 39.75 238.855 42.5ZM203.905 30C204.005 24.6 204.505 11.6 204.505 10.15C204.505 9.95 204.205 9.7 203.705 9.7C201.201 10.1954 198.657 10.4632 196.105 10.5C195.855 10.5 195.805 10.85 195.805 11.25C195.805 11.65 195.805 11.9 196.105 11.9C199.105 11.9 199.855 12.35 199.855 14.3C199.855 17.25 199.955 39.3 199.955 44C199.955 46 199.255 46.2 196.505 46.35C196.405 46.35 196.305 46.6 196.305 46.9C196.305 47.2 196.405 47.35 196.505 47.35C197.955 47.35 200.255 47.15 202.305 47.15C203.855 47.15 205.255 47.35 207.255 47.35C207.405 47.35 207.455 47.15 207.455 46.95C207.455 46.75 207.355 46.35 207.255 46.35C204.005 46.35 203.955 45.55 203.955 44.1C203.955 43 204.005 38.45 204.005 35.7C204.005 29.2 207.155 27.1 210.655 27.1C211.256 27.0767 211.855 27.1813 212.413 27.407C212.971 27.6327 213.475 27.9742 213.891 28.4091C214.306 28.844 214.625 29.3622 214.826 29.9295C215.027 30.4968 215.105 31.1003 215.055 31.7C215.055 34.6 214.855 40.4 214.855 43.55C214.855 45.2 213.905 46.35 211.405 46.35C211.305 46.35 211.205 46.6 211.205 46.85C211.205 47.1 211.305 47.35 211.405 47.35C212.955 47.35 215.205 47.15 216.405 47.15C218.805 47.15 220.655 47.35 222.455 47.35C222.605 47.35 222.655 47.15 222.655 46.95C222.655 46.75 222.555 46.35 222.455 46.35C219.255 46.1 218.905 45.15 218.905 42.45C218.905 40.15 219.305 34.95 219.305 31.4C219.305 26.8 215.655 24.85 212.305 24.85C208.955 24.85 204.855 26.7 203.905 30V30ZM193.205 47.35C193.355 47.35 193.405 47.15 193.405 46.95C193.405 46.75 193.305 46.35 193.205 46.35C190.055 46.1 189.755 45.35 189.755 43.95C189.755 21.2 190.055 10.95 190.055 10.15C190.055 9.95 189.755 9.7 189.255 9.7C186.854 10.2119 184.409 10.48 181.955 10.5C181.705 10.5 181.655 10.85 181.655 11.25C181.655 11.65 181.655 11.9 181.955 11.9C185.005 11.9 185.555 12.35 185.555 14.3C185.555 17.75 185.655 37.2 185.655 44.05C185.655 45.4 185.405 46.15 182.205 46.35C182.055 46.35 182.005 46.6 182.005 46.85C182.005 47.1 182.055 47.35 182.205 47.35C183.805 47.35 185.955 47.2 187.705 47.2C189.605 47.2 191.355 47.35 193.205 47.35V47.35ZM157.905 27.65C157.905 31.1 157.855 37.2 157.855 43.65C157.855 45.55 157.355 46.25 154.955 46.4C154.855 46.4 154.755 46.65 154.755 46.95C154.755 47.25 154.855 47.4 154.955 47.4C155.955 47.4 157.455 47.2 159.105 47.2C160.905 47.2 163.855 47.4 165.605 47.4C165.755 47.4 165.805 47.2 165.805 47C165.805 46.8 165.705 46.4 165.605 46.4C162.505 46.4 161.905 45.4 161.905 43.9C161.905 40.35 161.855 31.9 161.855 27.5H170.705C171.605 27.5 171.805 27.8 171.805 28.9V43.7C171.805 45.35 171.305 46.4 168.505 46.4C168.405 46.4 168.255 46.65 168.255 46.85C168.255 47.05 168.405 47.4 168.505 47.4C169.955 47.4 171.905 47.3 173.155 47.3C175.455 47.3 177.355 47.4 179.355 47.4C179.505 47.4 179.555 47.2 179.555 47C179.555 46.8 179.455 46.4 179.355 46.4C176.105 46.1 175.755 45.35 175.755 43.9C175.755 38.4 175.955 27.8 175.955 26.35C175.927 26.125 175.812 25.92 175.634 25.7796C175.456 25.6391 175.23 25.5746 175.005 25.6C172.409 26.008 169.78 26.1588 167.155 26.05C165.305 26.05 163.655 26.15 161.855 26.2C161.855 23.25 161.855 22.05 162.005 18.7C162.205 13.75 164.005 11.85 167.655 11.85C170.005 11.85 171.405 12.85 172.105 15.35C172.251 15.8099 172.547 16.2074 172.946 16.4793C173.345 16.7512 173.823 16.8817 174.305 16.85C174.819 16.8783 175.325 16.7069 175.716 16.3715C176.107 16.0362 176.354 15.5628 176.405 15.05C176.405 12.15 173.405 10.1 168.155 10.1C161.905 10.1 157.905 14.05 157.905 19.85V24.45C157.905 26.25 157.255 26.1 154.905 26.3C154.705 26.3 154.605 26.65 154.605 27.05C154.605 27.45 154.705 27.7 154.905 27.7L157.905 27.65ZM123.005 13.05C123.129 12.9531 123.233 12.8325 123.31 12.6951C123.387 12.5578 123.436 12.4065 123.455 12.25C123.455 11.7 122.605 11.5 121.755 11.5C121.336 11.4486 120.91 11.4939 120.512 11.6326C120.113 11.7713 119.751 11.9996 119.455 12.3L113.805 21.1C113.805 21.2 113.705 21.25 113.705 21.35C113.705 21.7 114.155 21.95 114.505 21.95C114.64 21.9228 114.762 21.8526 114.855 21.75L123.005 13.05ZM116.905 24.85C110.105 24.85 108.305 27.5 108.305 29.05C108.3 29.257 108.338 29.4627 108.418 29.6537C108.498 29.8447 108.618 30.0166 108.769 30.1582C108.92 30.2998 109.099 30.4079 109.295 30.4755C109.491 30.543 109.698 30.5684 109.905 30.55C110.335 30.5522 110.756 30.4246 111.113 30.1838C111.47 29.9429 111.746 29.6001 111.905 29.2C112.555 27.4 113.705 26.25 116.505 26.25C120.205 26.25 120.505 28.3 120.505 31.05V33.6C110.155 36.2 107.505 40 107.505 43.55C107.505 46.45 109.405 48.05 112.955 48.05C114.461 48.0068 115.933 47.5859 117.235 46.8258C118.536 46.0658 119.626 44.9909 120.405 43.7C120.505 46.7 121.355 48 124.355 48C125.348 48.0489 126.329 47.7659 127.144 47.1956C127.959 46.6253 128.561 45.8001 128.855 44.85C128.855 44.6 128.455 44.4 128.255 44.4C128.203 44.3985 128.152 44.4118 128.108 44.4384C128.063 44.4649 128.028 44.5037 128.005 44.55C127.809 44.9034 127.517 45.1943 127.163 45.3889C126.81 45.5836 126.408 45.6741 126.005 45.65C125.005 45.65 124.305 45.15 124.305 43.45C124.305 38.45 124.805 33.35 124.805 31.1C124.805 26.75 123.105 24.85 116.905 24.85V24.85ZM120.355 42.45C118.355 44.9 116.655 45.55 115.155 45.55C114.743 45.5674 114.332 45.4966 113.951 45.3423C113.569 45.1881 113.224 44.954 112.94 44.6557C112.656 44.3574 112.439 44.0018 112.303 43.6128C112.168 43.2237 112.117 42.8102 112.155 42.4C112.155 39.45 113.805 36.65 120.455 34.7C120.455 37.1 120.455 39.7 120.455 42.45H120.355ZM90.3546 37C97.8546 46.7 98.4046 47.3 99.7546 47.3C101.455 47.3 102.955 47.35 104.655 47.35C104.744 47.3412 104.828 47.3015 104.892 47.2376C104.956 47.1738 104.996 47.0898 105.005 47C105.005 46.7 105.005 46.4 104.905 46.4C104.512 46.4111 104.121 46.3431 103.755 46.2C102.305 45.6 98.6546 41.45 93.3546 34.75C94.4046 33.95 97.4046 31.1 98.7046 29.95C100.505 28.35 101.705 27.4 103.205 27.05C103.405 27 103.455 26.7 103.455 26.45C103.455 26.2 103.455 26 103.205 26C102.505 26 100.605 26.15 98.7546 26.15C96.9046 26.15 95.7546 26.1 94.4046 26.1C94.2546 26.1 94.2046 26.4 94.2046 26.6C94.2046 26.8 94.2046 27.15 94.4046 27.15C96.0046 27.15 96.6546 27.5 96.6546 28.6C96.6546 29.7 94.0046 32.85 88.3546 37C88.4046 27.45 88.7546 11.4 88.7546 10.15C88.7546 9.95 88.4546 9.7 87.9546 9.7C85.5544 10.2119 83.1087 10.48 80.6546 10.5C80.4046 10.5 80.3546 10.85 80.3546 11.25C80.3546 11.65 80.4046 11.9 80.6546 11.9C83.6546 11.9 84.3046 12.35 84.3046 14.3C84.3046 17.75 84.3046 37.15 84.3046 43.55C84.3046 45.3 84.0046 46 81.3546 46.35C81.2046 46.35 81.1546 46.65 81.1546 46.85C81.1546 47.05 81.1546 47.35 81.3546 47.35C82.9546 47.35 84.0046 47.2 85.9546 47.2C87.2046 47.2 89.2046 47.35 90.9546 47.35C91.1046 47.35 91.1546 47.15 91.1546 46.95C91.1676 46.7317 91.0959 46.5168 90.9546 46.35C88.7546 46.05 88.3046 45.55 88.3046 44.55C88.3046 43.55 88.3046 41.55 88.3046 38.45C89.0131 38.0272 89.6825 37.542 90.3046 37H90.3546ZM74.6546 26.85C73.7177 25.9086 72.5253 25.2627 71.225 24.9922C69.9247 24.7216 68.5736 24.8384 67.339 25.328C66.1043 25.8176 65.0404 26.6585 64.2789 27.7466C63.5174 28.8348 63.0917 30.1224 63.0546 31.45C63.0546 39.3 74.3546 36.95 74.3546 42.9C74.3546 45.4 72.4046 46.7 69.7046 46.7C68.1517 46.6593 66.6713 46.0343 65.5591 44.9498C64.4469 43.8654 63.7846 42.4013 63.7046 40.85C63.6998 40.7968 63.6841 40.7451 63.6584 40.6982C63.6328 40.6512 63.5978 40.6101 63.5556 40.5773C63.5134 40.5444 63.4649 40.5206 63.4131 40.5074C63.3613 40.4941 63.3074 40.4916 63.2546 40.5C62.9046 40.5 62.7546 40.7 62.7546 40.9C62.7546 42.55 62.5046 45.6 62.5046 46.35C62.5146 46.4481 62.5615 46.5388 62.6357 46.6037C62.7099 46.6686 62.806 46.703 62.9046 46.7C62.9858 46.7063 63.0675 46.6963 63.1448 46.6705C63.222 46.6448 63.2934 46.6038 63.3546 46.55C63.5199 46.3472 63.749 46.2062 64.0046 46.15C64.24 46.1912 64.4528 46.3154 64.6046 46.5C65.2546 47.2 67.0046 48.15 69.8046 48.15C73.0546 48.15 77.5546 46.35 77.5546 41.15C77.5546 33.4 65.9046 34.55 65.9046 29.95C65.8818 29.4515 65.9632 28.9537 66.1436 28.4884C66.324 28.0232 66.5995 27.6006 66.9523 27.2478C67.3052 26.8949 67.7277 26.6195 68.193 26.4391C68.6583 26.2587 69.1561 26.1772 69.6546 26.2C72.3546 26.2 74.5046 27.95 75.0546 31.2C75.0789 31.3237 75.1491 31.4337 75.2511 31.5079C75.3531 31.5821 75.4794 31.615 75.6046 31.6C75.8546 31.6 76.1546 31.5 76.1546 31.25C76.1546 29.45 76.3546 26.55 76.3546 26.25C76.3546 25.95 75.6546 25.85 75.5546 26.15C75.3046 26.85 74.8046 27 74.6546 26.85V26.85ZM49.9046 26.25C53.4546 26.25 54.2046 28.15 54.2046 29.9C54.2046 31.1 53.8046 31.2 51.9546 31.3C48.3546 31.45 44.9546 31.65 43.3046 31.7C44.3046 28.35 46.5046 26.25 49.9046 26.25V26.25ZM50.3546 24.85C42.7546 24.85 38.5546 30.95 38.5546 37.35C38.5546 44.85 43.4046 48.15 49.6546 48.15C53.8046 48.15 56.7046 46.3 58.1046 43.95C58.1282 43.8683 58.1282 43.7817 58.1046 43.7C58.1046 43.45 57.6546 43.05 57.3046 43.05C57.2186 43.0407 57.1317 43.0542 57.0526 43.0894C56.9736 43.1245 56.9053 43.1799 56.8546 43.25C55.6546 45.1 53.8546 46.25 50.8546 46.25C46.1546 46.25 42.7546 42.25 42.7546 35.45C42.7525 34.492 42.8531 33.5366 43.0546 32.6C47.9546 32.85 53.9046 32.9 57.5046 32.9C58.2046 32.9 58.5046 32.7 58.5046 31.75C58.5046 29.6 56.1046 24.9 50.4046 24.9L50.3546 24.85ZM26.1046 0.9C26.4046 0.55 25.8546 0 25.4546 0C25.2713 0.0134344 25.0966 0.0833002 24.9546 0.2L19.1046 5.45L12.7546 0.2C12.6081 0.0981674 12.4329 0.0456296 12.2546 0.05C11.9046 0.05 11.3046 0.5 11.6546 0.9L17.6546 8.4C18.0066 8.62101 18.4139 8.73824 18.8296 8.73824C19.2453 8.73824 19.6525 8.62101 20.0046 8.4L26.1046 0.9ZM18.7046 10.75C16.2239 10.7212 13.7629 11.1919 11.4679 12.1341C9.17296 13.0762 7.09108 14.4706 5.34624 16.2341C3.60139 17.9976 2.22927 20.0942 1.31158 22.399C0.393889 24.7039 -0.0506027 27.1698 0.00457424 29.65C0.00457424 40.65 7.55457 48.25 18.1046 48.25C22.1608 48.3432 26.1223 47.0169 29.3046 44.5C29.7491 44.0838 30.305 43.8059 30.9046 43.7C31.04 43.6932 31.1755 43.7141 31.3026 43.7613C31.4298 43.8085 31.546 43.8811 31.6442 43.9746C31.7425 44.0682 31.8206 44.1807 31.874 44.3054C31.9273 44.4301 31.9547 44.5644 31.9546 44.7C31.9546 44.95 32.3046 45.1 32.7046 45.1C33.1046 45.1 33.4046 44.9 33.4046 44.7C33.3265 43.8022 33.2931 42.9011 33.3046 42C33.3046 39.75 33.6046 38 33.8046 35.25C33.8046 35 33.4046 34.9 33.0546 34.9C32.7046 34.9 32.3046 35 32.3046 35.25C32.0301 38.328 30.5865 41.1838 28.2707 43.23C25.9549 45.2761 22.943 46.3569 19.8546 46.25C11.7546 46.25 6.50457 40.25 6.50457 30.25C6.50457 18.25 11.6546 12.3 19.1046 12.3C26.8046 12.3 31.6546 16.45 32.5546 24.4C32.5546 24.65 32.9046 24.75 33.2546 24.75C33.6046 24.75 34.0046 24.65 34.0046 24.4C33.8546 22.55 33.7546 20.65 33.7546 18.8C33.7546 16.95 33.8546 15 34.0046 13.15C34.0046 12.9 33.6546 12.8 33.2546 12.8C32.8546 12.8 32.5546 12.9 32.5546 13.15C32.5145 13.5973 32.325 14.0182 32.0166 14.3447C31.7082 14.6712 31.2989 14.8844 30.8546 14.95C30.3046 14.95 29.8546 14.4 29.3046 13.95C27.7046 12.7 24.5046 10.75 18.7046 10.75" fill="#231F20"/>
</svg>
